<svg width="32" height="32" viewBox="0 0 32 32" fill="none" xmlns="http://www.w3.org/2000/svg">
<path d="M25.1429 0H30.1714V0.457143H30.6286V0.914286H31.0857V1.37143H31.5429V1.82857H32V5.48571H31.5429V5.94286H31.0857V6.4H30.1714V6.85714H29.7143V7.77143H29.2571V8.22857H28.3429V8.68571H27.8857V9.6H27.4286V10.0571H26.9714V10.5143H26.5143V11.4286H26.0571V11.8857H25.6V12.3429H25.1429V12.8H24.6857V13.7143H24.2286V14.1714H23.7714V14.6286H23.3143V15.0857H22.8571V16H23.3143V16.9143H23.7714V17.8286H24.2286V19.2H23.7714V20.1143H23.3143V20.5714H21.9429V20.1143H20.5714V20.5714H20.1143V21.0286H19.6571V21.4857H19.2V21.9429H18.7429V22.4H18.2857V22.8571H17.8286V23.3143H17.3714V23.7714H16.9143V24.2286H16.4571V24.6857H16V25.6H15.5429V26.0571H15.0857V26.5143H14.6286V26.9714H14.1714V27.4286H13.7143V27.8857H13.2571V28.3429H12.8V29.2571H11.8857V30.1714H11.4286V30.6286H10.0571V31.0857H9.6V31.5429H8.22857V32H1.82857V31.5429H0.914286V31.0857H0V29.2571H0.457143V28.8H0.914286V28.3429H1.82857V27.8857H2.28571V27.4286H2.74286V26.9714H3.2V26.5143H3.65714V26.0571H4.11429V25.6H4.57143V25.1429H5.02857V24.6857H5.48571V23.7714H5.94286V23.3143H6.4V22.8571H6.85714V21.9429H7.31429V21.0286H7.77143V20.5714H8.22857V20.1143H8.68571V19.2H9.14286V18.7429H9.6V18.2857H10.0571V17.8286H10.5143V16.9143H10.9714V16.4571H11.4286V15.5429H11.8857V15.0857H12.3429V14.6286H12.8V14.1714H13.2571V13.7143H12.8V11.4286H13.2571V10.9714H14.1714V10.5143H16.4571V9.6H16.9143V9.14286H17.3714V8.68571H17.8286V7.77143H18.2857V7.31429H18.7429V6.85714H19.2V6.4H19.6571V5.94286H20.1143V5.48571H20.5714V5.02857H21.0286V4.57143H21.4857V4.11429H21.9429V3.65714H22.4V2.74286H22.8571V2.28571H23.3143V1.82857H23.7714V1.37143H24.2286V0.914286H24.6857V0.457143H25.1429V0Z" fill="#181616"/>
<path d="M25.1429 0H30.1714V0.457143H30.6286V0.914286H31.0857V1.37143H31.5429V1.82857H32V5.48571H31.5429V5.94286H31.0857V6.4H30.1714V6.85714H29.7143V7.77143H29.2571V8.22857H28.3429V8.68571H27.8857V9.6H27.4286V10.0571H26.9714V10.5143H26.5143V11.4286H26.0571V11.8857H25.6V12.3429H25.1429V12.8H24.6857V13.7143H24.2286V14.1714H23.7714V14.6286H23.3143V14.1714H21.9429V13.2571H22.4V12.8H22.8571V11.8857H23.3143V10.9714H23.7714V10.5143H22.8571V11.4286H22.4V11.8857H20.5714V11.4286H21.0286V10.5143H21.9429V10.0571H22.8571V9.6H23.3143V8.68571H22.8571V9.14286H21.4857V8.22857H21.0286V7.77143H21.4857V7.31429H23.3143V6.85714H21.0286V7.31429H20.5714V7.77143H20.1143V8.22857H19.6571V9.14286H19.2V9.6H18.7429V10.0571H18.2857V10.9714H17.3714V11.4286H16.9143V11.8857H16V11.4286H16.4571V10.9714H14.1714V10.5143H16.4571V9.6H16.9143V9.14286H17.3714V8.68571H17.8286V7.77143H18.2857V7.31429H18.7429V6.85714H19.2V6.4H19.6571V5.94286H20.1143V5.48571H20.5714V5.02857H21.0286V4.57143H21.4857V4.11429H21.9429V3.65714H22.4V2.74286H22.8571V2.28571H23.3143V1.82857H23.7714V1.37143H24.2286V0.914286H24.6857V0.457143H25.1429V0ZM22.8571 14.6286H23.3143V15.0857H22.8571V14.6286ZM22.4 15.0857H22.8571V16H22.4V15.0857ZM22.8571 16H23.3143V16.9143H22.8571V16ZM23.3143 16.9143H23.7714V17.8286H24.2286V19.2H23.7714V20.1143H23.3143V20.5714H21.9429V20.1143H20.5714V19.6571H21.4857V18.7429H22.4V17.3714H23.3143V16.9143ZM20.1143 20.1143H20.5714V20.5714H20.1143V20.1143ZM19.6571 20.5714H20.1143V21.0286H19.6571V20.5714Z" fill="#231E1A"/>
<path d="M21.0286 6.85714H23.3143V7.31429H21.4857V7.77143H21.0286V8.22857H21.4857V9.14286H22.8571V8.68571H23.3143V9.6H22.8571V10.0571H21.9429V10.5143H21.0286V11.4286H20.5714V11.8857H22.4V11.4286H22.8571V10.5143H23.7714V10.9714H23.3143V11.8857H22.8571V12.8H22.4V13.2571H21.9429V14.1714H23.3143V14.6286H22.8571V15.0857H22.4V16H22.8571V16.9143H23.3143V17.3714H22.4V18.7429H21.4857V19.6571H20.5714V20.1143H20.1143V20.5714H19.6571V21.4857H19.2V21.9429H18.2857V22.4H17.8286V21.4857H17.3714V21.9429H16.9143V22.4H16.4571V22.8571H16V23.3143H15.5429V23.7714H15.0857V22.8571H14.6286V22.4H15.0857V19.6571H14.6286V20.1143H13.7143V19.6571H12.8V18.7429H12.3429V19.2H11.4286V18.2857H11.8857V17.8286H12.3429V17.3714H12.8V16.4571H12.3429V16.9143H11.8857V17.3714H10.9714V16.9143H11.4286V15.5429H11.8857V15.0857H12.3429V14.6286H12.8V14.1714H13.2571V13.7143H12.8V11.4286H13.2571V10.9714H16.4571V11.4286H16V11.8857H16.9143V11.4286H17.3714V10.9714H18.2857V10.0571H18.7429V9.6H19.2V9.14286H19.6571V8.22857H20.1143V7.77143H20.5714V7.31429H21.0286V6.85714ZM14.6286 13.2571V13.7143H14.1714V14.6286H13.7143V15.0857H13.2571V15.5429H12.8V16.4571H13.7143V15.5429H14.1714V15.0857H14.6286V14.6286H15.0857V13.2571H14.6286Z" fill="#171514"/>
<path d="M25.1428 3.2H26.5143V4.11429H26.9714V4.57143H27.4286V3.65714H26.9714V3.2H27.8857V3.65714H28.3428V5.48571H27.8857V5.94286H25.1428V6.4H27.4286V6.85714H27.8857V6.4H28.3428V5.94286H28.8V5.02857H31.0857V4.11429H31.5428V4.57143H32V5.48571H31.5428V5.94286H31.0857V6.4H30.1714V6.85714H29.7143V7.77143H29.2571V8.22857H28.3428V8.68571H27.8857V9.6H27.4286V10.0571H26.9714V10.5143H26.5143V11.4286H26.0571V11.8857H25.6V12.3429H25.1428V12.8H24.6857V13.7143H24.2286V14.1714H23.7714V14.6286H23.3143V14.1714H21.9428V13.2571H22.4V12.8H22.8571V11.8857H23.3143V10.9714H23.7714V10.5143H22.8571V11.4286H22.4V11.8857H20.5714V11.4286H21.0286V10.5143H21.9428V10.0571H22.8571V9.6H23.3143V8.68571H25.1428V7.77143H25.6V7.31429H24.6857V5.48571H25.1428V3.2ZM22.8571 14.6286H23.3143V15.0857H22.8571V14.6286ZM22.4 15.0857H22.8571V16H22.4V15.0857ZM22.8571 16H23.3143V16.9143H22.8571V16ZM23.3143 16.9143H23.7714V17.8286H24.2286V19.2H23.7714V20.1143H23.3143V20.5714H21.9428V20.1143H20.5714V19.6571H21.4857V18.7429H22.4V17.3714H23.3143V16.9143ZM20.1143 20.1143H20.5714V20.5714H20.1143V20.1143ZM19.6571 20.5714H20.1143V21.0286H19.6571V20.5714Z" fill="#0A0909"/>
<path d="M8.22857 23.7714H8.68571V24.6857H9.14286V25.1429H8.68571V25.6H8.22857V26.0571H8.68571V29.7143H9.6V29.2571H10.5143V28.8H10.9714V28.3429H11.4286V29.7143H11.8857V30.1714H11.4286V30.6286H10.0571V31.0857H9.6V31.5429H8.22857V32H1.82857V31.5429H0.914286V31.0857H0V29.2571H0.457143V28.8H0.914286V28.3429H1.82857V27.8857H2.28571V27.4286H2.74286V27.8857H3.65714V27.4286H4.11429V28.3429H3.65714V28.8H3.2V29.2571H4.11429V28.8H4.57143V28.3429H5.48571V27.4286H5.94286V26.9714H6.4V26.0571H6.85714V25.6H7.31429V25.1429H7.77143V24.2286H8.22857V23.7714ZM3.65714 26.0571H4.11429V26.5143H3.65714V26.0571ZM3.2 26.5143H3.65714V26.9714H3.2V26.5143ZM2.74286 26.9714H3.2V27.4286H2.74286V26.9714ZM4.11429 26.9714H4.57143V27.4286H4.11429V26.9714Z" fill="#181617"/>
<path d="M9.14286 21.4857H9.6V24.6857H10.5143V26.9714H10.9714V27.4286H11.8857V27.8857H12.8V26.9714H13.7143V26.0571H14.1714V25.6H14.6286V25.1429H15.0857V24.6857H16V25.6H15.5429V26.0571H15.0857V26.5143H14.6286V26.9714H14.1714V27.4286H13.7143V27.8857H13.2571V28.3429H12.8V29.2571H11.8857V29.7143H11.4286V28.3429H10.9714V28.8H10.5143V29.2571H9.6V29.7143H8.68572V26.0571H8.22857V25.6H8.68572V25.1429H9.14286V24.6857H8.68572V23.7714H8.22857V24.2286H7.77143V25.1429H7.31429V25.6H6.85714V26.0571H6.4V26.9714H5.94286V27.4286H5.48572V28.3429H4.57143V28.8H4.11429V29.2571H3.2V28.8H3.65714V28.3429H4.11429V27.4286H3.65714V27.8857H2.74286V27.4286H3.2V26.9714H3.65714V26.5143H4.11429V25.6H4.57143V25.1429H5.02857V24.6857H5.48572V23.7714H5.94286V23.3143H6.4V22.8571H6.85714V22.4H7.31429V23.7714H7.77143V23.3143H8.22857V22.8571H8.68572V21.9429H9.14286V21.4857ZM4.11429 26.9714V27.4286H4.57143V26.9714H4.11429ZM12.8 25.6H13.7143V26.0571H13.2571V26.5143H12.8V26.9714H12.3429V26.0571H12.8V25.6Z" fill="#2A2523"/>
<path d="M25.1429 0H25.6V0.457143H25.1429V0ZM24.6857 0.457143H25.1429V0.914286H24.6857V0.457143ZM24.2286 0.914286H24.6857V1.37143H24.2286V0.914286ZM23.7714 1.37143H24.2286V2.28571H23.7714V2.74286H24.6857V3.65714H24.2286V4.11429H23.7714V4.57143H23.3143V5.02857H22.8571V5.48571H22.4V5.94286H23.3143V5.48571H23.7714V5.94286H24.2286V7.77143H23.3143V8.68571H22.8571V9.14286H21.4857V8.22857H21.0286V7.77143H21.4857V7.31429H23.3143V6.85714H21.0286V7.31429H20.5714V7.77143H20.1143V8.22857H19.6571V9.14286H19.2V9.6H18.7429V10.0571H18.2857V10.9714H17.3714V11.4286H16.9143V11.8857H16V11.4286H16.4571V10.9714H14.1714V10.5143H16.4571V9.6H16.9143V9.14286H17.3714V8.68571H17.8286V7.77143H18.2857V7.31429H18.7429V6.85714H19.2V6.4H19.6571V5.94286H20.1143V5.48571H20.5714V5.02857H21.0286V4.57143H21.4857V4.11429H21.9429V3.65714H22.4V2.74286H22.8571V2.28571H23.3143V1.82857H23.7714V1.37143Z" fill="#060505"/>
<path d="M21.0286 6.85714H23.3143V7.31429H21.4857V7.77143H21.0286V8.22857H21.4857V9.14286H22.8571V8.68571H23.3143V9.6H22.8571V10.0571H21.9429V10.5143H21.0286V11.4286H20.5714V11.8857H22.4V11.4286H22.8571V10.5143H23.7714V10.9714H23.3143V11.8857H22.8571V12.8H21.4857V12.3429H20.1143V12.8H20.5714V13.2571H21.0286V13.7143H21.4857V14.6286H21.0286V15.5429H20.1143V15.0857H19.2V14.6286H18.7429V14.1714H18.2857V13.7143H17.3714V13.2571H16.9143V12.8H16.4571V12.3429H16.9143V11.8857H17.3714V10.9714H18.2857V10.0571H18.7429V9.6H19.2V9.14286H19.6571V8.22857H20.1143V7.77143H20.5714V7.31429H21.0286V6.85714Z" fill="#514239"/>
<path d="M15.0857 12.8H16V13.2571H16.4571V13.7143H16.9143V14.1714H17.3714V14.6286H18.2857V15.0857H18.7429V15.5429H19.2V16H20.1143V16.4571H21.0286V16.9143H21.4857V17.3714H21.9429V18.2857H21.4857V17.8286H21.0286V17.3714H20.1143V17.8286H19.6571V19.2H19.2V19.6571H18.7429V20.1143H18.2857V20.5714H17.8286V21.0286H17.3714V19.6571H17.8286V18.7429H18.2857V17.8286H17.3714V16.9143H16.4571V16H15.5429V16.4571H14.1714V17.3714H13.7143V18.2857H12.8V18.7429H12.3429V19.2H11.4286V18.2857H11.8857V17.8286H12.3429V17.3714H12.8V16.9143H13.2571V16.4571H13.7143V15.5429H14.1714V15.0857H14.6286V14.6286H15.0857V12.8Z" fill="#312D2F"/>
<path d="M9.14286 18.7429H10.9714V20.1143H11.4286V23.7714H10.9714V26.9714H10.5143V24.6857H9.6V21.4857H9.14286V21.9429H8.68572V22.8571H8.22858V23.3143H7.77143V23.7714H7.31429V22.4H6.85715V21.9429H7.31429V21.0286H7.77143V20.5714H8.22858V20.1143H8.68572V19.2H9.14286V18.7429ZM12.8 21.4857H13.2571V23.7714H13.7143V24.6857H14.1714V25.1429H13.7143V25.6H12.8V26.0571H12.3429V26.9714H12.8V27.8857H11.8857V27.4286H10.9714V26.9714H11.8857V25.6H12.3429V21.9429H12.8V21.4857ZM13.2571 26.0571H13.7143V26.9714H12.8V26.5143H13.2571V26.0571Z" fill="#181615"/>
<path d="M15.5429 16H16.4571V16.9143H17.3714V17.8286H18.2857V18.7429H17.8286V19.6571H17.3714V21.0286H17.8286V21.4857H17.3714V21.9429H16.9143V22.4H16.4571V22.8571H16V23.3143H15.5429V23.7714H15.0857V22.8571H14.6286V22.4H15.0857V19.6571H14.6286V20.1143H13.7143V19.6571H12.8V18.2857H13.7143V17.3714H14.1714V16.4571H15.5429V16Z" fill="#181819"/>
<path d="M25.1429 3.2H26.5143V4.11429H26.9714V4.57143H27.4286V3.65714H26.9714V3.2H27.8857V3.65714H28.3429V5.48571H27.8857V5.94286H25.1429V6.4H26.9714V7.77143H26.5143V8.68571H26.0571V9.6H25.6V10.0571H25.1429V10.5143H24.6857V10.9714H24.2286V11.4286H23.7714V11.8857H23.3143V10.9714H23.7714V10.5143H22.8571V11.4286H22.4V11.8857H20.5714V11.4286H21.0286V10.5143H21.9429V10.0571H22.8571V9.6H23.3143V8.68571H25.1429V7.77143H25.6V7.31429H24.6857V5.48571H25.1429V3.2Z" fill="#1E1816"/>
<path d="M8.22858 23.7714H8.68572V24.6857H9.14286V25.1429H8.68572V25.6H8.22858V26.0571H8.68572V29.2571H8.22858V29.7143H7.77144V30.1714H6.85715V30.6286H5.48572V30.1714H6.40001V29.7143H5.94286V29.2571H4.57144V29.7143H3.65715V29.2571H4.11429V28.8H4.57144V28.3429H5.48572V27.4286H5.94286V26.9714H6.40001V26.0571H6.85715V25.6H7.31429V25.1429H7.77144V24.2286H8.22858V23.7714Z" fill="#0A090A"/>
<path d="M23.3143 2.74286H24.6857V3.65714H24.2286V4.11429H23.7714V4.57143H23.3143V5.02857H22.8571V5.48571H22.4V5.94286H23.3143V5.48571H23.7714V5.94286H24.2286V7.77143H23.3143V8.68571H22.8571V9.14286H21.4857V8.22857H21.0286V7.77143H21.4857V7.31429H23.3143V6.85714H21.4857V6.4H20.5714V6.85714H20.1143V7.31429H19.2V6.85714H19.6571V6.4H20.1143V5.94286H20.5714V5.48571H21.0286V5.02857H21.4857V4.57143H21.9429V4.11429H22.4V3.65714H22.8571V3.2H23.3143V2.74286Z" fill="#14100F"/>
<path d="M10.0571 24.6857H10.5143V26.9714H10.9714V27.4286H11.8857V27.8857H12.8V26.9714H13.7143V26.0571H14.1714V25.6H14.6286V25.1429H15.0857V24.6857H16V25.6H15.5429V26.0571H15.0857V26.5143H14.6286V26.9714H14.1714V27.4286H13.7143V27.8857H13.2571V28.3429H12.8V29.2571H11.8857V29.7143H11.4286V28.3429H10.9714V28.8H10.5143V29.2571H9.6V29.7143H8.68571V26.9714H9.6V27.8857H10.0571V28.3429H10.5143V27.4286H10.0571V24.6857ZM12.8 25.6H13.7143V26.0571H13.2571V26.5143H12.8V26.9714H12.3429V26.0571H12.8V25.6Z" fill="#474343"/>
<path d="M15.0857 12.8H16V13.2571H16.4571V13.7143H16.9143V14.1714H17.3714V14.6286H18.2857V15.0857H18.7429V15.5429H19.2V16H18.2857V15.5429H17.8286V15.0857H17.3714V16H16.9143V15.5429H16.4571V14.1714H16V15.5429H15.5429V16.4571H14.1714V17.3714H13.7143V18.2857H12.8V18.7429H12.3429V19.2H11.4286V18.2857H11.8857V17.8286H12.3429V17.3714H12.8V16.9143H13.2571V16.4571H13.7143V15.5429H14.1714V15.0857H14.6286V14.6286H15.0857V12.8Z" fill="#655B5B"/>
<path d="M27.4286 8.68571H27.8857V9.6H27.4286V8.68571ZM26.9714 9.6H27.4286V10.0571H26.9714V9.6ZM26.5143 10.0571H26.9714V10.5143H26.5143V10.0571ZM26.0571 10.5143H26.5143V11.4286H26.0571V10.5143ZM25.6 11.4286H26.0571V11.8857H25.6V11.4286ZM25.1428 11.8857H25.6V12.3429H25.1428V11.8857ZM24.6857 12.3429H25.1428V12.8H24.6857V12.3429ZM24.2286 12.8H24.6857V13.7143H24.2286V14.1714H23.7714V14.6286H23.3143V13.7143H23.7714V13.2571H24.2286V12.8ZM22.8571 14.6286H23.3143V15.0857H22.8571V14.6286ZM22.4 15.0857H22.8571V16H22.4V15.0857ZM22.8571 16H23.3143V16.9143H22.8571V16ZM23.3143 16.9143H23.7714V17.8286H24.2286V19.2H23.7714V20.1143H23.3143V20.5714H21.9428V20.1143H20.5714V19.6571H21.4857V18.7429H22.4V17.3714H23.3143V16.9143ZM20.1143 20.1143H20.5714V20.5714H20.1143V20.1143ZM19.6571 20.5714H20.1143V21.0286H19.6571V20.5714Z" fill="#070405"/>
<path d="M14.6286 19.6571H15.0857V22.4H14.6286V21.9429H14.1714V20.5714H14.6286V19.6571ZM17.3714 21.4857H17.8286V22.4H18.2857V22.8571H17.8286V23.3143H17.3714V23.7714H16.9143V24.2286H16.4571V24.6857H15.0857V25.1429H14.6286V25.6H14.1714V26.0571H13.7143V25.1429H14.1714V24.6857H13.7143V23.7714H13.2571V22.4H13.7143V22.8571H14.1714V22.4H14.6286V22.8571H15.0857V23.7714H15.5429V23.3143H16V22.8571H16.4571V22.4H16.9143V21.9429H17.3714V21.4857ZM18.2857 21.9429H18.7429V22.4H18.2857V21.9429Z" fill="#0D0C0D"/>
<path d="M3.65714 26.0571H4.11429V26.5143H3.65714V26.0571ZM3.2 26.5143H3.65714V26.9714H3.2V26.5143ZM2.74286 26.9714H3.2V27.4286H2.74286V26.9714ZM4.11429 26.9714H4.57143V27.4286H4.11429V26.9714ZM2.28571 27.4286H2.74286V27.8857H3.65714V27.4286H4.11429V28.3429H3.65714V28.8H3.2V29.7143H2.74286V30.1714H1.82857V30.6286H2.28571V31.5429H2.74286V32H1.82857V31.5429H0.914286V31.0857H0V29.2571H0.457143V28.8H0.914286V28.3429H1.82857V27.8857H2.28571V27.4286Z" fill="#151312"/>
<path d="M12.8 21.4857H13.2571V23.7714H13.7143V24.6857H14.1714V25.1429H13.7143V25.6H12.8V26.0571H12.3429V26.9714H12.8V27.8857H11.8857V27.4286H10.9714V26.9714H11.8857V25.6H12.3429V21.9429H12.8V21.4857ZM10.5143 22.8571H10.9714V26.9714H10.5143V24.6857H10.0571V23.3143H10.5143V22.8571ZM13.2571 26.0571H13.7143V26.9714H12.8V26.5143H13.2571V26.0571Z" fill="#1D1A1A"/>
<path d="M13.2571 10.9714H14.6286V12.3429H15.0857V13.2571H14.6286V13.7143H14.1714V14.6286H13.7143V15.0857H13.2571V15.5429H12.8V16.4571H12.3429V16.9143H11.8857V17.3714H10.9714V16.9143H11.4286V15.5429H11.8857V15.0857H12.3429V14.6286H12.8V14.1714H13.2571V13.7143H12.8V11.4286H13.2571V10.9714ZM12.8 16.4571H13.2571V16.9143H12.8V16.4571Z" fill="#231B1A"/>
<path d="M10.9714 19.6571H11.8857V20.1143H12.8V20.5714H13.2571V21.4857H12.8V21.9429H12.3429V25.6H11.8857V26.9714H10.9714V23.7714H11.4286V20.1143H10.9714V19.6571Z" fill="#090809"/>
<path d="M14.6286 10.9714H16.4571V11.4286H16V11.8857H16.9143V12.3429H16.4571V12.8H16.9143V13.2571H17.3714V13.7143H18.2857V14.1714H18.7429V14.6286H19.2V15.0857H20.1143V15.5429H21.0286V16.4571H20.1143V16H19.2V15.5429H18.7429V15.0857H18.2857V14.6286H17.3714V14.1714H16.9143V13.7143H16.4571V13.2571H16V12.8H15.0857V12.3429H14.6286V10.9714ZM16.9143 11.4286H17.3714V11.8857H16.9143V11.4286Z" fill="#262223"/>
<path d="M31.0857 4.11429H31.5429V4.57143H32V5.48572H31.5429V5.94286H31.0857V6.4H30.1714V6.85714H29.7143V7.77143H29.2571V8.22857H28.3429V7.77143H28.8V7.31429H27.8857V6.4H28.3429V5.94286H28.8V5.02857H31.0857V4.11429ZM27.8857 8.22857H28.3429V8.68572H27.8857V8.22857Z" fill="#070605"/>
<path d="M25.1429 3.2H26.5143V4.11429H26.9714V4.57143H27.4286V3.65714H26.9714V3.2H27.8857V3.65714H28.3429V5.48571H27.8857V5.94286H25.6V5.48571H25.1429V3.2Z" fill="#1B1613"/>
<path d="M17.3714 12.3429H18.2857V12.8H18.7429V13.2571H19.6571V12.8H19.2V12.3429H20.1143V12.8H20.5714V13.2571H21.0286V13.7143H21.4857V14.6286H21.0286V15.5429H20.1143V15.0857H19.2V14.6286H18.7429V14.1714H18.2857V13.2571H17.8286V12.8H17.3714V12.3429Z" fill="#3D3737"/>
<path d="M24.6857 3.2H25.1429V5.48571H24.6857V7.31429H25.6V7.77143H25.1429V8.68571H23.3143V7.77143H24.2286V5.94286H23.7714V5.48571H23.3143V5.94286H22.4V5.48571H22.8571V5.02857H23.3143V4.57143H23.7714V4.11429H24.2286V3.65714H24.6857V3.2Z" fill="#392D25"/>
<path d="M26.5143 0.914286H28.3429V1.37143H28.8V1.82857H28.3429V3.2H26.9714V3.65714H27.4286V4.57143H26.9714V4.11429H26.5143V3.2H25.1429V2.74286H25.6V1.82857H26.0571V1.37143H26.5143V0.914286Z" fill="#4A3E37"/>
<path d="M23.3143 5.48571H23.7714V5.94286H24.2286V7.77143H23.3143V8.68571H22.8571V9.14286H21.4857V8.22857H21.0286V7.77143H21.4857V7.31429H23.3143V6.85714H21.4857V6.4H21.9429V5.94286H23.3143V5.48571Z" fill="#181515"/>
<path d="M8.22857 23.7714H8.68571V24.6857H9.14285V25.1429H8.68571V25.6H8.22857V26.0571H8.68571V28.8H8.22857V27.8857H7.77142V27.4286H6.39999V26.0571H6.85714V25.6H7.31428V25.1429H7.77142V24.2286H8.22857V23.7714Z" fill="#1C191B"/>
<path d="M17.3714 17.8286H18.2857V18.7429H17.8286V19.6571H17.3714V21.0286H17.8286V21.4857H17.3714V21.9429H16.9143V22.4H16.4571V21.4857H16V20.1143H15.5429V19.2H16V18.7429H16.4571V18.2857H17.3714V17.8286ZM16.4571 21.0286V21.4857H16.9143V21.0286H16.4571Z" fill="#201E1F"/>
<path d="M19.2 16H20.1143V16.4571H21.0286V16.9143H21.4857V17.3714H21.9429V18.2857H21.4857V17.8286H21.0286V17.3714H20.1143V17.8286H19.6571V19.2H19.2V19.6571H18.7429V20.1143H18.2857V19.2H18.7429V18.7429H19.2V17.8286H18.7429V17.3714H18.2857V16.9143H17.8286V16.4571H18.7429V16.9143H19.2V16Z" fill="#5A504D"/>
<path d="M20.1143 12.3429H21.4857V12.8H22.4V13.2571H21.9429V14.1714H23.3143V14.6286H22.8571V15.0857H22.4V16.9143H21.9429V16H21.0286V14.6286H21.4857V13.7143H21.0286V13.2571H20.5714V12.8H20.1143V12.3429Z" fill="#151212"/>
<path d="M17.3714 21.4857H17.8286V22.4H18.2857V22.8571H17.8286V23.3143H17.3714V23.7714H16.9143V24.2286H16.4571V24.6857H15.0857V25.1429H14.6286V24.2286H15.0857V23.7714H15.5429V23.3143H16V22.8571H16.4571V22.4H16.9143V21.9429H17.3714V21.4857ZM18.2857 21.9429H18.7429V22.4H18.2857V21.9429Z" fill="#171514"/>
<path d="M24.2286 10.9714H24.6857V11.4286H25.6V11.8857H25.1429V12.3429H24.6857V12.8H24.2286V13.2571H23.7714V13.7143H23.3143V14.1714H21.9429V13.2571H22.4V12.8H22.8571V11.8857H23.7714V11.4286H24.2286V10.9714Z" fill="#0B0A09"/>
<path d="M29.7143 3.2H30.1714V3.65714H30.6286V5.02857H28.8V5.94286H28.3429V6.4H27.8857V6.85714H27.4286V6.4H25.1429V5.94286H27.8857V5.48571H28.3429V3.65714H28.8V4.11429H29.7143V3.2Z" fill="#362A22"/>
<path d="M25.6 0H26.5143V0.457143H27.4286V0.914286H26.5143V1.37143H26.0571V1.82857H25.6V2.74286H25.1429V3.2H24.6857V2.74286H23.7714V2.28571H24.2286V1.37143H24.6857V0.914286H25.1429V0.457143H25.6V0Z" fill="#141110"/>
<path d="M12.8 21.4857H13.2572V23.7714H13.7143V24.6857H14.1714V25.1429H13.7143V25.6H12.3429V21.9429H12.8V21.4857Z" fill="#272323"/>
<path d="M3.65714 26.0571H4.11429V26.5143H3.65714V26.0571ZM3.2 26.5143H3.65714V26.9714H3.2V26.5143ZM2.74286 26.9714H3.2V27.4286H2.74286V26.9714ZM2.28571 27.4286H2.74286V27.8857H2.28571V27.4286ZM1.82857 27.8857H2.28571V28.8H2.74286V29.2571H2.28571V29.7143H0.914286V30.1714H0V29.2571H0.457143V28.8H0.914286V28.3429H1.82857V27.8857Z" fill="#020101"/>
<path d="M15.0857 20.1143H16V21.4857H16.4571V22.8571H16V23.3143H15.5429V23.7714H15.0857V22.8571H14.6286V22.4H15.0857V20.1143ZM16.4571 21.0286H16.9143V21.4857H16.4571V21.0286Z" fill="#171616"/>
<path d="M10.9714 21.0286H11.4286V23.7714H10.9714V22.8571H10.5143V23.3143H10.0571V24.6857H9.60001V21.4857H10.0571V21.9429H10.5143V21.4857H10.9714V21.0286Z" fill="#131112"/>
<path d="M7.77143 20.5714H8.22858V21.0286H9.14286V21.9429H8.68572V22.8571H8.22858V23.3143H7.77143V23.7714H7.31429V22.4H6.85715V21.9429H7.31429V21.0286H7.77143V20.5714Z" fill="#0A0909"/>
<path d="M13.7143 15.5429H14.1714V17.3714H13.7143V18.2857H12.8V18.7429H12.3429V19.2H11.4286V18.2857H11.8857V17.8286H12.3429V17.3714H12.8V16.9143H13.2571V16.4571H13.7143V15.5429Z" fill="#645A57"/>
<path d="M24.6857 5.48571H25.6V5.94286H25.1429V6.4H26.9714V7.77143H26.5143V8.68571H26.0571V8.22857H25.6V7.31429H24.6857V5.48571Z" fill="#201A19"/>
<path d="M8.68571 26.9714H9.6V27.8857H10.0571V28.3429H10.9714V28.8H10.5143V29.2571H9.6V29.7143H8.68571V26.9714Z" fill="#423A3A"/>
<path d="M14.6286 10.9714H16.4571V11.4286H16V11.8857H16.9143V12.3429H16.4571V12.8H16.9143V13.2571H16V12.8H15.0857V12.3429H14.6286V10.9714ZM16.9143 11.4286H17.3714V11.8857H16.9143V11.4286Z" fill="#1B191A"/>
<path d="M17.3714 11.4286H18.7429V11.8857H19.2V12.8H19.6571V13.2571H18.7429V12.8H18.2857V12.3429H17.3714V12.8H17.8286V13.2571H18.2857V13.7143H17.3714V13.2571H16.9143V12.8H16.4571V12.3429H16.9143V11.8857H17.3714V11.4286Z" fill="#5A5251"/>
<path d="M15.0857 24.6857H16V25.6H15.5429V26.0571H15.0857V26.5143H14.1714V26.9714H13.7143V26.0571H14.1714V25.6H14.6286V25.1429H15.0857V24.6857ZM12.8 25.6H13.7143V26.0571H13.2572V26.5143H12.8V26.9714H12.3429V26.0571H12.8V25.6Z" fill="#262321"/>
<path d="M6.85714 22.4H7.31428V23.3143H6.85714V24.6857H6.4V25.1429H5.94285V25.6H4.57143V25.1429H5.02857V24.6857H5.48571V23.7714H5.94285V23.3143H6.4V22.8571H6.85714V22.4Z" fill="#2E2323"/>
<path d="M10.9714 28.3429H11.4286V29.7143H11.8857V30.1714H11.4286V30.6286H9.60001V29.2571H10.5143V28.8H10.9714V28.3429Z" fill="#361312"/>
<path d="M26.9714 6.4H27.4286V6.85714H27.8857V7.31429H28.8V7.77143H28.3429V8.22857H27.8857V8.68571H27.4286V9.6H26.9714V8.68571H26.5143V7.77143H26.9714V6.4Z" fill="#110E0D"/>
<path d="M26.5143 0H30.1714V0.457143H30.6286V0.914286H28.8V1.37143H28.3429V0.914286H27.4286V0.457143H26.5143V0Z" fill="#34241E"/>
<path d="M13.2571 10.9714H14.6286V12.3429H15.0857V12.8H14.1714V12.3429H13.7143V12.8H12.8V11.4286H13.2571V10.9714Z" fill="#494240"/>
<path d="M18.7429 9.6H19.6571V11.8857H18.7429V11.4286H17.3714V10.9714H18.2857V10.0571H18.7429V9.6Z" fill="#292422"/>
<path d="M8.22857 23.7714H8.68571V24.6857H9.14285V25.1429H8.68571V25.6H7.77142V26.0571H7.31428V26.5143H6.85714V26.9714H6.39999V26.0571H6.85714V25.6H7.31428V25.1429H7.77142V24.2286H8.22857V23.7714Z" fill="#0B0A0B"/>
<path d="M18.7429 19.6571H19.2V20.1143H18.7429V19.6571ZM18.2857 20.1143H18.7429V20.5714H19.6571V21.4857H19.2V21.9429H18.2857V22.4H17.8286V20.5714H18.2857V20.1143Z" fill="#271312"/>
<path d="M21.9429 10.0571H22.8571V11.4286H22.4V11.8857H20.5714V11.4286H21.0286V10.5143H21.9429V10.0571Z" fill="#181414"/>
<path d="M20.5714 6.4H21.4857V6.85714H21.0286V7.31429H20.5714V7.77143H20.1143V8.22857H19.6571V9.14286H19.2V8.68571H18.7429V7.31429H20.1143V6.85714H20.5714V6.4Z" fill="#0E0B0A"/>
<path d="M24.2286 5.94286H24.6857V7.31429H25.6V7.77143H25.1429V8.68571H23.3143V7.77143H24.2286V5.94286Z" fill="#433830"/>
<path d="M30.1714 1.82857H30.6286V2.28571H31.0857V2.74286H31.5429V3.65714H32V4.57143H31.5429V4.11429H31.0857V5.02857H30.6286V3.2H30.1714V1.82857Z" fill="#19120E"/>
<path d="M7.77143 28.3429H8.22857V28.8H8.68572V29.2571H8.22857V29.7143H7.77143V30.1714H6.85715V30.6286H5.48572V30.1714H6.4V29.7143H6.85715V29.2571H7.31429V28.8H7.77143V28.3429Z" fill="#080809"/>
<path d="M11.8857 23.7714H12.3429V25.6H11.8857V26.9714H10.9714V25.1429H11.4286V24.6857H11.8857V23.7714Z" fill="#050506"/>
<path d="M14.1714 17.8286H14.6286V19.2H14.1714V20.1143H13.7143V19.6571H12.8V18.2857H14.1714V17.8286Z" fill="#0D0C0D"/>
<path d="M16.4571 14.1714H17.3714V14.6286H18.2857V15.0857H18.7429V15.5429H19.2V16H18.2857V15.5429H17.8286V15.0857H17.3714V16H16.9143V15.5429H16.4571V14.1714Z" fill="#584E4A"/>
<path d="M26.9714 3.2H27.8857V3.65714H28.3429V5.48571H27.8857V5.94286H26.9714V5.02857H27.4286V3.65714H26.9714V3.2Z" fill="#0F0D0E"/>
<path d="M23.3143 2.74286H24.6857V3.65714H24.2286V4.11429H23.7714V4.57143H23.3143V5.02857H22.8571V3.2H23.3143V2.74286Z" fill="#0D0A09"/>
<path d="M8.22858 29.2571H8.68572V29.7143H9.6V30.6286H8.22858V31.0857H7.77143V30.6286H6.85715V30.1714H7.77143V29.7143H8.22858V29.2571Z" fill="#1A1716"/>
<path d="M17.3714 21.4857H17.8286V22.4H18.2857V22.8571H17.8286V23.3143H16V22.8571H16.4571V22.4H16.9143V21.9429H17.3714V21.4857ZM18.2857 21.9429H18.7429V22.4H18.2857V21.9429Z" fill="#0C0A09"/>
<path d="M10.5143 19.6571H10.9714V20.1143H11.4286V21.0286H10.9714V21.4857H10.5143V21.9429H10.0571V21.4857H9.60001V20.5714H10.0571V20.1143H10.5143V19.6571Z" fill="#443D3C"/>
<path d="M17.3714 17.8286H18.2857V18.7429H17.8286V19.6571H16.4571V18.2857H17.3714V17.8286Z" fill="#212022"/>
<path d="M12.3429 15.0857H13.2571V15.5429H12.8V16.4571H12.3429V16.9143H11.8857V17.3714H10.9714V16.9143H11.4286V16H11.8857V15.5429H12.3429V15.0857ZM12.8 16.4571H13.2571V16.9143H12.8V16.4571Z" fill="#302D2E"/>
<path d="M24.2286 10.9714H24.6857V11.4286H25.6V11.8857H25.1429V12.3429H24.6857V12.8H23.7714V12.3429H22.8571V11.8857H23.7714V11.4286H24.2286V10.9714Z" fill="#0F0D0D"/>
<path d="M14.1714 16.4571H15.5429V17.8286H14.1714V18.2857H13.7143V17.3714H14.1714V16.4571Z" fill="#201E1E"/>
<path d="M15.0857 12.8H16V13.2571H16.4571V13.7143H16.9143V14.1714H16V15.0857H15.5429V14.1714H15.0857V12.8Z" fill="#6F6563"/>
<path d="M4.11429 26.9714H4.57144V27.4286H4.11429V26.9714ZM3.65715 27.4286H4.11429V28.3429H3.65715V28.8H3.20001V29.2571H2.74286V28.8H2.28572V27.8857H3.65715V27.4286Z" fill="#141110"/>
<path d="M21.4857 7.31429H22.8571V7.77143H22.4V8.22857H21.9429V8.68571H22.8571V9.14286H21.4857V8.22857H21.0286V7.77143H21.4857V7.31429Z" fill="#1C1818"/>
<path d="M30.6286 0.914286H31.0857V1.37143H31.5429V1.82857H32V3.65714H31.5429V2.74286H31.0857V2.28571H30.6286V0.914286Z" fill="#271F0E"/>
<path d="M25.6 0H26.5143V0.457143H27.4286V0.914286H26.5143V1.37143H26.0571V1.82857H25.6V0.914286H25.1429V0.457143H25.6V0Z" fill="#221C17"/>
<path d="M5.94286 26.9714H6.4V27.4286H7.77143V27.8857H6.4V28.3429H5.48572V27.4286H5.94286V26.9714ZM7.77143 27.8857H8.22857V28.3429H7.77143V27.8857Z" fill="#121112"/>
<path d="M8.68572 25.1429H9.60001V26.9714H8.68572V26.0571H8.22858V25.6H8.68572V25.1429Z" fill="#2B2626"/>
<path d="M14.6286 10.9714H16.4571V11.4286H16V11.8857H15.5429V12.3429H14.6286V10.9714Z" fill="#1A1719"/>
<path d="M23.3143 8.68571H24.6857V9.6H24.2286V10.0571H22.8571V9.6H23.3143V8.68571Z" fill="#0E0C0C"/>
<path d="M15.0857 24.6857H16V25.6H15.5429V26.0571H15.0857V26.5143H14.6286V25.1429H15.0857V24.6857Z" fill="#6A4645"/>
<path d="M13.2571 21.0286H14.1714V21.9429H14.6286V22.4H14.1714V22.8571H13.7143V22.4H13.2571V21.0286Z" fill="#161415"/>
<path d="M20.1143 12.3429H21.4857V12.8H22.4V13.2571H21.4857V13.7143H21.0286V13.2571H20.5714V12.8H20.1143V12.3429Z" fill="#171414"/>
<path d="M20.1143 9.14286H21.4857V10.0571H21.0286V10.5143H20.1143V9.14286Z" fill="#161414"/>
<path d="M28.3429 5.94286H29.2571V7.31429H27.8857V6.4H28.3429V5.94286Z" fill="#090807"/>
<path d="M9.14286 18.7429H10.5143V19.2H10.0571V19.6571H9.6V20.1143H9.14286V19.6571H8.68571V19.2H9.14286V18.7429Z" fill="#0C0C0A"/>
<path d="M7.77143 28.3429H8.22857V28.8H8.68571V29.2571H8.22857V29.7143H7.31429V28.8H7.77143V28.3429Z" fill="#060506"/>
<path d="M21.9429 10.0571H22.8571V10.9714H22.4V11.4286H21.9429V10.9714H21.4857V10.5143H21.9429V10.0571Z" fill="#0E0B0B"/>
</svg>
